<mxfile host="65bd71144e">
    <diagram id="axL0MIbwPD7gxxN1GoPi" name="Page-1">
        <mxGraphModel dx="775" dy="548" grid="1" gridSize="10" guides="1" tooltips="1" connect="1" arrows="1" fold="1" page="1" pageScale="1" pageWidth="850" pageHeight="1100" math="0" shadow="0">
            <root>
                <mxCell id="0"/>
                <mxCell id="1" parent="0"/>
                <mxCell id="13" value="" style="shape=internalStorage;whiteSpace=wrap;html=1;backgroundOutline=1;dx=220;dy=60;" parent="1" vertex="1">
                    <mxGeometry x="150" y="600" width="430" height="540" as="geometry"/>
                </mxCell>
                <mxCell id="14" value="Atrributes" style="text;html=1;strokeColor=none;fillColor=none;align=center;verticalAlign=middle;whiteSpace=wrap;rounded=0;" parent="1" vertex="1">
                    <mxGeometry x="225" y="620" width="60" height="30" as="geometry"/>
                </mxCell>
                <mxCell id="15" value="Methods" style="text;html=1;strokeColor=none;fillColor=none;align=center;verticalAlign=middle;whiteSpace=wrap;rounded=0;" parent="1" vertex="1">
                    <mxGeometry x="430" y="620" width="55" height="30" as="geometry"/>
                </mxCell>
                <mxCell id="16" value="" style="endArrow=none;html=1;" parent="1" target="13" edge="1">
                    <mxGeometry width="50" height="50" relative="1" as="geometry">
                        <mxPoint x="150" y="880" as="sourcePoint"/>
                        <mxPoint x="200" y="830" as="targetPoint"/>
                        <Array as="points">
                            <mxPoint x="580" y="880"/>
                        </Array>
                    </mxGeometry>
                </mxCell>
                <mxCell id="17" value="" style="endArrow=none;html=1;" parent="1" edge="1">
                    <mxGeometry width="50" height="50" relative="1" as="geometry">
                        <mxPoint x="150" y="910" as="sourcePoint"/>
                        <mxPoint x="580" y="910" as="targetPoint"/>
                        <Array as="points">
                            <mxPoint x="580" y="910"/>
                        </Array>
                    </mxGeometry>
                </mxCell>
                <mxCell id="18" value="Responsibi;ity" style="text;html=1;strokeColor=none;fillColor=none;align=center;verticalAlign=middle;whiteSpace=wrap;rounded=0;" parent="1" vertex="1">
                    <mxGeometry x="197.5" y="880" width="115" height="30" as="geometry"/>
                </mxCell>
                <mxCell id="19" value="Collaborator" style="text;html=1;strokeColor=none;fillColor=none;align=center;verticalAlign=middle;whiteSpace=wrap;rounded=0;" parent="1" vertex="1">
                    <mxGeometry x="430" y="880" width="115" height="30" as="geometry"/>
                </mxCell>
                <mxCell id="20" value="&lt;font style=&quot;font-size: 18px;&quot;&gt;-productID&lt;br&gt;-userID&lt;br&gt;-rating&lt;br&gt;-comment&lt;br&gt;-reviewDate&lt;br&gt;&lt;/font&gt;" style="text;html=1;strokeColor=none;fillColor=none;align=left;verticalAlign=middle;whiteSpace=wrap;rounded=0;" parent="1" vertex="1">
                    <mxGeometry x="162.5" y="630" width="200" height="190" as="geometry"/>
                </mxCell>
                <mxCell id="21" value="&lt;span style=&quot;font-size: 18px;&quot;&gt;+addReview()&lt;br&gt;+deleteReview()&lt;br&gt;+getReviews()&lt;br&gt;+averageRating&lt;br&gt;&lt;/span&gt;" style="text;html=1;strokeColor=none;fillColor=none;align=left;verticalAlign=middle;whiteSpace=wrap;rounded=0;" parent="1" vertex="1">
                    <mxGeometry x="380" y="620" width="190" height="190" as="geometry"/>
                </mxCell>
                <mxCell id="22" value="&lt;span style=&quot;font-size: 18px;&quot;&gt;1. add and delete reviews&lt;br&gt;2. retrieve reviews&lt;br&gt;3. calculate average rating&lt;br&gt;4. filter inappropriate reviews&lt;br&gt;5. provide review related assistance&lt;br&gt;&lt;/span&gt;" style="text;html=1;strokeColor=none;fillColor=none;align=left;verticalAlign=middle;whiteSpace=wrap;rounded=0;" parent="1" vertex="1">
                    <mxGeometry x="162.5" y="960" width="195" height="120" as="geometry"/>
                </mxCell>
                <mxCell id="23" value="&lt;font style=&quot;font-size: 18px;&quot;&gt;-Admin&lt;br&gt;&lt;br&gt;-Admin&lt;br&gt;-Recommendation&lt;br&gt;&lt;br&gt;-Admin&lt;br&gt;&lt;br&gt;-Chatbot&lt;br&gt;&lt;/font&gt;" style="text;html=1;strokeColor=none;fillColor=none;align=left;verticalAlign=middle;whiteSpace=wrap;rounded=0;" vertex="1" parent="1">
                    <mxGeometry x="380" y="920" width="190" height="190" as="geometry"/>
                </mxCell>
            </root>
        </mxGraphModel>
    </diagram>
</mxfile>